<svg width="24" height="31" viewBox="0 0 24 31" fill="none" xmlns="http://www.w3.org/2000/svg">
<path d="M13.7668 1.47161C13.2981 1.00344 12.6626 0.740479 12.0001 0.740479C11.3376 0.740479 10.7022 1.00344 10.2335 1.47161L0.801804 10.8983C0.332813 11.3673 0.0693359 12.0034 0.0693359 12.6666C0.0693359 13.3299 0.332813 13.966 0.801804 14.4349C1.2708 14.9039 1.90688 15.1674 2.57014 15.1674C3.23339 15.1674 3.86948 14.9039 4.33847 14.4349L9.50014 9.27495V28.4999C9.50014 29.163 9.76353 29.7989 10.2324 30.2677C10.7012 30.7366 11.3371 30.9999 12.0001 30.9999C12.6632 30.9999 13.2991 30.7366 13.7679 30.2677C14.2367 29.7989 14.5001 29.163 14.5001 28.4999V9.27495L19.6601 14.4349C19.8924 14.6672 20.168 14.8514 20.4715 14.977C20.7749 15.1027 21.1001 15.1674 21.4285 15.1674C21.7569 15.1674 22.0821 15.1027 22.3855 14.977C22.6889 14.8514 22.9646 14.6672 23.1968 14.4349C23.429 14.2027 23.6132 13.927 23.7389 13.6236C23.8646 13.3202 23.9293 12.995 23.9293 12.6666C23.9293 12.3382 23.8646 12.013 23.7389 11.7096C23.6132 11.4062 23.429 11.1305 23.1968 10.8983L13.7668 1.47161Z" fill="white"/>
</svg>
