<svg width="28" height="29" viewBox="0 0 28 29" fill="none" xmlns="http://www.w3.org/2000/svg">
<path d="M20.8047 14.0104C20.7316 13.8378 20.6205 13.684 20.4798 13.5602C20.3392 13.4364 20.1724 13.3459 19.992 13.2953C19.6314 13.1967 19.2539 13.1759 18.8846 13.234C18.5153 13.2922 18.1625 13.4281 17.8496 13.6327C17.5378 13.9478 17.3363 14.3553 17.2753 14.7944C17.2753 14.948 17.2753 14.9767 17.4576 14.9767H20.8607C21.0287 14.9767 21.0287 14.9767 21.0144 14.7656C20.9983 14.5018 20.9278 14.2443 20.8047 14.0104ZM20.8047 14.0104C20.7316 13.8378 20.6191 13.684 20.4784 13.5602C20.3377 13.4364 20.1724 13.3459 19.992 13.2953C19.6314 13.1967 19.2539 13.1759 18.8846 13.234C18.5153 13.2922 18.1625 13.4281 17.8496 13.6327C17.5378 13.9478 17.3349 14.3553 17.2738 14.7944C17.2738 14.948 17.2738 14.9767 17.4562 14.9767H20.8607C21.0287 14.9767 21.0287 14.9767 21.0144 14.7656C20.9983 14.5018 20.9249 14.2443 20.8018 14.0104M22.4 0.5H5.6C4.11479 0.5 2.69041 1.09 1.6402 2.1402C0.589998 3.19041 0 4.61479 0 6.1V22.9C0 24.3852 0.589998 25.8096 1.6402 26.8598C2.69041 27.91 4.11479 28.5 5.6 28.5H22.4C23.8852 28.5 25.3096 27.91 26.3598 26.8598C27.41 25.8096 28 24.3852 28 22.9V6.1C28 4.61479 27.41 3.19041 26.3598 2.1402C25.3096 1.09 23.8852 0.5 22.4 0.5ZM16.912 9.41692C16.912 9.30636 16.912 9.26328 17.0384 9.26328H21.5744V10.4407C21.5744 10.4407 21.5787 10.524 21.504 10.524H17.1087C16.912 10.524 16.912 10.524 16.912 10.3287V9.41692ZM12.712 19.708C10.9889 20.6456 8.09272 20.268 4.66236 20.268V8.66164H10.136C11.536 8.66164 13.2016 9.012 13.6496 10.4953C13.8823 11.1431 13.8681 11.854 13.6099 12.492C13.3516 13.1301 12.8674 13.6507 12.2496 13.9544C12.8191 14.1651 13.3162 14.5345 13.6822 15.0189C14.0482 15.5034 14.2677 16.0825 14.3149 16.6878C14.362 17.2931 14.2347 17.8993 13.9481 18.4345C13.6615 18.9698 13.2276 19.4117 12.6976 19.708H12.712ZM23.1424 16.404H17.5424C17.3887 16.404 17.248 16.4873 17.2753 16.684C17.4433 17.5096 17.8209 18.3784 18.6767 18.5047C19.1286 18.6392 19.6125 18.6185 20.0513 18.446C20.49 18.2735 20.8584 17.959 21.0976 17.5527C21.0976 17.5527 21.168 17.468 21.2096 17.468H23.0304C23.0304 17.468 23.1424 17.468 23.1136 17.5656C22.9216 18.1093 22.6375 18.616 22.2736 19.0633C21.787 19.5281 21.1998 19.8745 20.5577 20.0757C19.9155 20.2768 19.2356 20.3273 18.5707 20.2231C17.9059 20.1189 17.274 19.863 16.7241 19.4751C16.1742 19.0871 15.7211 18.5777 15.4 17.9864C15.2025 17.592 15.0793 17.1646 15.0367 16.7256C14.787 15.6223 14.9779 14.465 15.5687 13.5003C16.1595 12.5356 17.1037 11.8397 18.2 11.5607C21.3776 10.8744 23.3936 13.0584 23.3936 16.1384C23.3983 16.1744 23.3947 16.211 23.383 16.2453C23.3713 16.2797 23.3519 16.3109 23.3262 16.3366C23.3006 16.3623 23.2693 16.3817 23.235 16.3934C23.2006 16.4051 23.164 16.4087 23.128 16.404H23.1424ZM20.0064 13.2953C19.646 13.1953 19.2683 13.1748 18.8993 13.235C18.5303 13.2924 18.2 13.3628 17.864 13.6327C17.528 13.9012 17.3499 14.355 17.2896 14.7944C17.2896 14.948 17.2896 14.9767 17.472 14.9767H20.8607C21.0287 14.9767 21.0287 14.9767 21.0144 14.7656C20.9983 14.5018 20.9278 14.2443 20.8047 14.0104C20.7316 13.8378 20.6205 13.684 20.4798 13.5602C20.3392 13.4364 20.1724 13.3459 19.992 13.2953H20.0064Z" fill="white"/>
</svg>
