<svg width="41" height="40" viewBox="0 0 41 40" fill="none" xmlns="http://www.w3.org/2000/svg">
<path d="M30.221 19.3005C30.1165 19.0541 29.9579 18.8343 29.7569 18.6575C29.5559 18.4806 29.3177 18.3513 29.06 18.279C28.5448 18.1382 28.0056 18.1084 27.478 18.1915C26.9504 18.2746 26.4465 18.4687 25.9995 18.761C25.554 19.2111 25.2662 19.7933 25.179 20.4205C25.179 20.64 25.179 20.681 25.4395 20.681H30.301C30.541 20.681 30.541 20.681 30.5205 20.3795C30.4975 20.0025 30.3968 19.6348 30.221 19.3005ZM30.221 19.3005C30.1165 19.0541 29.9558 18.8343 29.7549 18.6575C29.5539 18.4806 29.3177 18.3513 29.06 18.279C28.5448 18.1382 28.0056 18.1084 27.478 18.1915C26.9504 18.2746 26.4465 18.4687 25.9995 18.761C25.554 19.2111 25.2641 19.7933 25.1769 20.4205C25.1769 20.64 25.1769 20.681 25.4374 20.681H30.301C30.541 20.681 30.541 20.681 30.5205 20.3795C30.4975 20.0025 30.3927 19.6348 30.2169 19.3005M32.5 0H8.5C6.37827 0 4.34344 0.842854 2.84315 2.34315C1.34285 3.84344 0.5 5.87827 0.5 8V32C0.5 34.1217 1.34285 36.1566 2.84315 37.6569C4.34344 39.1571 6.37827 40 8.5 40H32.5C34.6217 40 36.6566 39.1571 38.1569 37.6569C39.6571 36.1566 40.5 34.1217 40.5 32V8C40.5 5.87827 39.6571 3.84344 38.1569 2.34315C36.6566 0.842854 34.6217 0 32.5 0ZM24.66 12.7385C24.66 12.5805 24.66 12.519 24.8405 12.519H31.3205V14.201C31.3205 14.201 31.3267 14.32 31.22 14.32H24.941C24.66 14.32 24.66 14.32 24.66 14.041V12.7385ZM18.66 27.44C16.1985 28.7795 12.061 28.24 7.16051 28.24V11.6595H14.98C16.98 11.6595 19.3595 12.16 19.9995 14.279C20.3318 15.2045 20.3116 16.22 19.9427 17.1315C19.5737 18.043 18.882 18.7867 17.9995 19.2205C18.8129 19.5215 19.5231 20.0493 20.046 20.7413C20.5688 21.4334 20.8825 22.2607 20.9498 23.1254C21.0171 23.9902 20.8353 24.8561 20.4259 25.6207C20.0165 26.3854 19.3965 27.0167 18.6395 27.44H18.66ZM33.5605 22.72H25.5605C25.341 22.72 25.14 22.839 25.179 23.12C25.419 24.2995 25.9585 25.5405 27.181 25.721C27.8266 25.9131 28.5179 25.8836 29.1447 25.6371C29.7715 25.3906 30.2977 24.9414 30.6395 24.361C30.6395 24.361 30.74 24.24 30.7995 24.24H33.4005C33.4005 24.24 33.5605 24.24 33.5195 24.3795C33.2452 25.1562 32.8393 25.8799 32.3195 26.519C31.6243 27.183 30.7855 27.6779 29.8681 27.9652C28.9507 28.2526 27.9794 28.3247 27.0296 28.1758C26.0799 28.027 25.1772 27.6614 24.3916 27.1072C23.6061 26.5531 22.9588 25.8253 22.5 24.9805C22.2178 24.4171 22.0419 23.8066 21.981 23.1795C21.6243 21.6033 21.8969 19.95 22.741 18.5719C23.5851 17.1937 24.9338 16.1995 26.5 15.801C31.0395 14.8205 33.9195 17.9405 33.9195 22.3405C33.9262 22.3919 33.921 22.4442 33.9043 22.4933C33.8876 22.5424 33.8599 22.587 33.8232 22.6237C33.7865 22.6604 33.7419 22.6882 33.6928 22.7048C33.6437 22.7215 33.5914 22.7267 33.54 22.72H33.5605ZM29.0805 18.279C28.5658 18.1362 28.0262 18.1068 27.499 18.1928C26.9718 18.2749 26.5 18.3754 26.02 18.761C25.54 19.1446 25.2856 19.7928 25.1995 20.4205C25.1995 20.64 25.1995 20.681 25.46 20.681H30.301C30.541 20.681 30.541 20.681 30.5205 20.3795C30.4975 20.0025 30.3968 19.6348 30.221 19.3005C30.1165 19.0541 29.9579 18.8343 29.7569 18.6575C29.5559 18.4806 29.3177 18.3513 29.06 18.279H29.0805Z" fill="white"/>
</svg>
