<svg width="41" height="40" viewBox="0 0 41 40" fill="none" xmlns="http://www.w3.org/2000/svg">
<path d="M31.125 0H9.875C4.69733 0 0.5 4.19733 0.5 9.375V30.625C0.5 35.8027 4.69733 40 9.875 40H31.125C36.3027 40 40.5 35.8027 40.5 30.625V9.375C40.5 4.19733 36.3027 0 31.125 0Z" fill="white"/>
<path d="M20.5002 4.6875C11.8717 4.6875 4.875 11.6828 4.875 20.3127C4.875 27.2163 9.35203 33.0731 15.5605 35.1392C16.3413 35.2839 16.628 34.8003 16.628 34.3877C16.628 34.015 16.6134 32.7842 16.6067 31.4786C12.2598 32.4237 11.3427 29.635 11.3427 29.635C10.6317 27.8289 9.60766 27.3487 9.60766 27.3487C8.19 26.3789 9.71453 26.3989 9.71453 26.3989C11.2836 26.5091 12.1098 28.0091 12.1098 28.0091C13.5034 30.3978 15.7652 29.7072 16.6567 29.308C16.797 28.298 17.2019 27.6088 17.6487 27.2186C14.1783 26.8234 10.53 25.4836 10.53 19.4966C10.53 17.7906 11.1403 16.3967 12.1398 15.3025C11.9775 14.9089 11.4427 13.3197 12.2911 11.1675C12.2911 11.1675 13.6033 10.7477 16.5892 12.7691C17.8356 12.423 19.1722 12.2494 20.5002 12.2434C21.828 12.2494 23.1658 12.423 24.4144 12.7692C27.3967 10.7475 28.707 11.1677 28.707 11.1677C29.5575 13.3197 29.0225 14.9091 28.8602 15.3025C29.862 16.3967 30.4683 17.7906 30.4683 19.4966C30.4683 25.498 26.813 26.8194 23.3336 27.2061C23.8941 27.6911 24.3934 28.6419 24.3934 30.0997C24.3934 32.1903 24.3753 33.873 24.3753 34.3877C24.3753 34.8034 24.6566 35.2906 25.4486 35.1372C31.6536 33.0688 36.125 27.2139 36.125 20.3127C36.125 11.683 29.1292 4.6875 20.5002 4.6875ZM10.7272 26.9458C10.6928 27.0234 10.5706 27.0467 10.4594 26.9934C10.3459 26.9425 10.2823 26.8366 10.3191 26.7587C10.3527 26.6787 10.4752 26.6566 10.5881 26.7102C10.7017 26.7611 10.7664 26.868 10.7272 26.9458ZM11.4958 27.6316C11.4213 27.7008 11.2755 27.6686 11.1767 27.5594C11.0745 27.4505 11.0553 27.3048 11.1309 27.2347C11.2077 27.1656 11.3491 27.198 11.4514 27.3069C11.5536 27.4172 11.5736 27.5617 11.4958 27.6316ZM12.023 28.5091C11.9272 28.5756 11.7706 28.5133 11.6739 28.3742C11.5781 28.2353 11.5781 28.0688 11.6759 28.0019C11.773 27.9352 11.9272 27.9952 12.0253 28.1331C12.1208 28.2744 12.1208 28.4411 12.023 28.5091ZM12.9147 29.5253C12.8291 29.6197 12.6467 29.5944 12.5131 29.4655C12.3766 29.3395 12.3384 29.1608 12.4244 29.0663C12.5111 28.9716 12.6945 28.9983 12.8291 29.1261C12.9647 29.2517 13.0061 29.4319 12.9147 29.5253ZM14.0672 29.8683C14.0294 29.9908 13.8538 30.0464 13.6767 29.9944C13.5002 29.9408 13.3844 29.7975 13.4202 29.6738C13.4569 29.5506 13.6333 29.4927 13.8116 29.5483C13.9881 29.6016 14.1039 29.7439 14.0672 29.8683ZM15.3787 30.0139C15.3831 30.1427 15.2331 30.2495 15.0473 30.2519C14.8605 30.2561 14.7094 30.1517 14.7073 30.025C14.7073 29.8948 14.8541 29.7891 15.0408 29.7859C15.2267 29.7823 15.3787 29.8858 15.3787 30.0139ZM16.6672 29.9645C16.6895 30.0902 16.5605 30.2194 16.3759 30.2537C16.1945 30.2869 16.0266 30.2092 16.0036 30.0845C15.9811 29.9556 16.1125 29.8266 16.2936 29.7931C16.4784 29.7611 16.6438 29.8367 16.6672 29.9645Z" fill="black"/>
</svg>
