<svg width="28" height="29" viewBox="0 0 28 29" fill="none" xmlns="http://www.w3.org/2000/svg">
<path d="M21.4375 0.5H6.5625C2.93813 0.5 0 3.43813 0 7.0625V21.9375C0 25.5619 2.93813 28.5 6.5625 28.5H21.4375C25.0619 28.5 28 25.5619 28 21.9375V7.0625C28 3.43813 25.0619 0.5 21.4375 0.5Z" fill="white"/>
<path d="M14.0001 3.78125C7.9602 3.78125 3.0625 8.67797 3.0625 14.7189C3.0625 19.5514 6.19642 23.6512 10.5423 25.0975C11.0889 25.1987 11.2896 24.8602 11.2896 24.5714C11.2896 24.3105 11.2794 23.449 11.2747 22.535C8.23189 23.1966 7.58986 21.2445 7.58986 21.2445C7.0922 19.9802 6.37536 19.6441 6.37536 19.6441C5.383 18.9652 6.45017 18.9792 6.45017 18.9792C7.54852 19.0563 8.12689 20.1063 8.12689 20.1063C9.10241 21.7785 10.6856 21.295 11.3097 21.0156C11.4079 20.3086 11.6913 19.8261 12.0041 19.553C9.5748 19.2764 7.021 18.3385 7.021 14.1476C7.021 12.9534 7.44822 11.9777 8.14789 11.2117C8.03425 10.9362 7.65986 9.82378 8.25377 8.31725C8.25377 8.31725 9.1723 8.02336 11.2625 9.43834C12.1349 9.19608 13.0705 9.07456 14.0001 9.07041C14.9296 9.07456 15.866 9.19608 16.7401 9.43845C18.8277 8.02325 19.7449 8.31736 19.7449 8.31736C20.3402 9.82378 19.9658 10.9363 19.8521 11.2117C20.5534 11.9777 20.9778 12.9534 20.9778 14.1476C20.9778 18.3486 18.4191 19.2736 15.9835 19.5443C16.3758 19.8838 16.7254 20.5493 16.7254 21.5698C16.7254 23.0332 16.7127 24.2111 16.7127 24.5714C16.7127 24.8624 16.9096 25.2034 17.464 25.096C21.8075 23.6481 24.9375 19.5497 24.9375 14.7189C24.9375 8.67808 20.0405 3.78125 14.0001 3.78125ZM7.15903 19.362C7.13497 19.4164 7.04944 19.4327 6.97156 19.3954C6.89216 19.3597 6.84764 19.2856 6.87334 19.2311C6.89686 19.1751 6.98261 19.1596 7.06169 19.1971C7.1412 19.2328 7.18648 19.3076 7.15903 19.362ZM7.69705 19.8421C7.64488 19.8905 7.54283 19.868 7.4737 19.7916C7.40217 19.7153 7.38872 19.6134 7.44166 19.5643C7.49536 19.5159 7.59434 19.5386 7.66598 19.6148C7.73752 19.692 7.75152 19.7932 7.69705 19.8421ZM8.06608 20.4563C7.99903 20.5029 7.88944 20.4593 7.82173 20.362C7.75469 20.2647 7.75469 20.1481 7.82316 20.1013C7.89108 20.0546 7.99903 20.0966 8.06772 20.1932C8.13455 20.2921 8.13455 20.4088 8.06608 20.4563ZM8.69028 21.1677C8.63034 21.2338 8.5027 21.2161 8.40919 21.1258C8.31359 21.0377 8.28691 20.9125 8.34706 20.8464C8.40777 20.7801 8.53617 20.7988 8.63034 20.8883C8.72528 20.9762 8.75427 21.1023 8.69028 21.1677ZM9.49703 21.4078C9.47056 21.4935 9.34763 21.5325 9.2237 21.4961C9.10011 21.4585 9.01906 21.3582 9.04411 21.2716C9.06981 21.1854 9.1933 21.1449 9.31809 21.1838C9.44169 21.2211 9.52273 21.3207 9.49703 21.4078ZM10.4151 21.5097C10.4182 21.5999 10.3132 21.6747 10.1831 21.6763C10.0523 21.6793 9.94656 21.6062 9.94514 21.5175C9.94514 21.4264 10.0478 21.3523 10.1785 21.3502C10.3087 21.3476 10.4151 21.42 10.4151 21.5097ZM11.317 21.4752C11.3327 21.5631 11.2423 21.6536 11.1132 21.6776C10.9862 21.7008 10.8686 21.6465 10.8525 21.5592C10.8368 21.4689 10.9288 21.3786 11.0555 21.3552C11.1849 21.3328 11.3006 21.3857 11.317 21.4752Z" fill="black"/>
</svg>
