<svg width="41" height="30" viewBox="0 0 41 30" fill="none" xmlns="http://www.w3.org/2000/svg">
<path d="M36.5 26.25H32.5V9.84375L20.5 16.875L8.5 9.84375V26.25H4.5V3.75H6.9L20.5 11.7188L34.1 3.75H36.5M36.5 0H4.5C2.28 0 0.5 1.66875 0.5 3.75V26.25C0.5 27.2446 0.921427 28.1984 1.67157 28.9016C2.42172 29.6049 3.43913 30 4.5 30H36.5C37.5609 30 38.5783 29.6049 39.3284 28.9016C40.0786 28.1984 40.5 27.2446 40.5 26.25V3.75C40.5 2.75544 40.0786 1.80161 39.3284 1.09835C38.5783 0.395088 37.5609 0 36.5 0Z" fill="white"/>
</svg>
