<svg width="41" height="40" viewBox="0 0 41 40" fill="none" xmlns="http://www.w3.org/2000/svg">
<path d="M12.1 0H28.9C35.3 0 40.5 5.2 40.5 11.6V28.4C40.5 31.4765 39.2779 34.427 37.1024 36.6024C34.927 38.7779 31.9765 40 28.9 40H12.1C5.7 40 0.5 34.8 0.5 28.4V11.6C0.5 8.52349 1.72214 5.57298 3.89756 3.39756C6.07298 1.22214 9.02349 0 12.1 0ZM11.7 4C9.79044 4 7.95909 4.75857 6.60883 6.10883C5.25857 7.45909 4.5 9.29044 4.5 11.2V28.8C4.5 32.78 7.72 36 11.7 36H29.3C31.2096 36 33.0409 35.2414 34.3912 33.8912C35.7414 32.5409 36.5 30.7096 36.5 28.8V11.2C36.5 7.22 33.28 4 29.3 4H11.7ZM31 7C31.663 7 32.2989 7.26339 32.7678 7.73223C33.2366 8.20107 33.5 8.83696 33.5 9.5C33.5 10.163 33.2366 10.7989 32.7678 11.2678C32.2989 11.7366 31.663 12 31 12C30.337 12 29.7011 11.7366 29.2322 11.2678C28.7634 10.7989 28.5 10.163 28.5 9.5C28.5 8.83696 28.7634 8.20107 29.2322 7.73223C29.7011 7.26339 30.337 7 31 7ZM20.5 10C23.1522 10 25.6957 11.0536 27.5711 12.9289C29.4464 14.8043 30.5 17.3478 30.5 20C30.5 22.6522 29.4464 25.1957 27.5711 27.0711C25.6957 28.9464 23.1522 30 20.5 30C17.8478 30 15.3043 28.9464 13.4289 27.0711C11.5536 25.1957 10.5 22.6522 10.5 20C10.5 17.3478 11.5536 14.8043 13.4289 12.9289C15.3043 11.0536 17.8478 10 20.5 10ZM20.5 14C18.9087 14 17.3826 14.6321 16.2574 15.7574C15.1321 16.8826 14.5 18.4087 14.5 20C14.5 21.5913 15.1321 23.1174 16.2574 24.2426C17.3826 25.3679 18.9087 26 20.5 26C22.0913 26 23.6174 25.3679 24.7426 24.2426C25.8679 23.1174 26.5 21.5913 26.5 20C26.5 18.4087 25.8679 16.8826 24.7426 15.7574C23.6174 14.6321 22.0913 14 20.5 14Z" fill="white"/>
</svg>
