<svg width="31" height="30" viewBox="0 0 31 30" fill="fff" xmlns="http://www.w3.org/2000/svg">
<path id="Vector" d="M6.53333 12.9833C8.93333 17.7 12.8 21.55 17.5167 23.9667L21.1833 20.3C21.6333 19.85 22.3 19.7 22.8833 19.9C24.75 20.5167 26.7667 20.85 28.8333 20.85C29.75 20.85 30.5 21.6 30.5 22.5167V28.3333C30.5 29.25 29.75 30 28.8333 30C13.1833 30 0.5 17.3167 0.5 1.66667C0.5 0.75 1.25 0 2.16667 0H8C8.91667 0 9.66667 0.75 9.66667 1.66667C9.66667 3.75 10 5.75 10.6167 7.61667C10.8 8.2 10.6667 8.85 10.2 9.31667L6.53333 12.9833Z" fill="withe"/>
</svg>
